<svg xmlns="http://www.w3.org/2000/svg" viewBox="0 0 500 500"><defs><style>.f87048a4-7c62-45f2-9531-43fae0f28f68{fill:#fff;}</style></defs><g id="b3fbf3b8-e9dc-428e-b7db-b2d39b366e53" data-name="Ebene 3"><rect class="f87048a4-7c62-45f2-9531-43fae0f28f68" width="500" height="500"/></g><g id="a2684d94-edd0-49ae-8133-27da93f9f47a" data-name="Ebene 2"><path d="M270.37,405.53c-22.72,0-43.7.13-64.68-.18a10,10,0,0,1-7-3.94q-49.31-72-98.37-144.51c32.75-47.07,65.13-93.69,97.72-140.16,1.61-2.3,5.07-4.63,7.71-4.68,21-.38,42-.21,64.84-.21-13,22.93-25.2,44.32-37.38,65.69-13.68,24-27.25,48.08-41.17,71.94-3,5.25-3.18,9.11,0,14.66,24.17,42.74,47.89,85.73,71.72,128.66C265.77,396.51,267.65,400.32,270.37,405.53Z"/><path d="M394.17,405.54c-22.72,0-43.7.13-64.68-.18a10,10,0,0,1-7-3.94q-49.31-72-98.37-144.51c32.75-47.07,65.13-93.69,97.72-140.16,1.61-2.3,5.07-4.63,7.71-4.68,21-.38,42-.21,64.84-.21-13.05,22.93-25.2,44.31-37.38,65.69-13.68,24-27.25,48.08-41.17,71.94-3.06,5.25-3.19,9.11,0,14.66,24.17,42.74,47.88,85.73,71.72,128.66C389.56,396.52,391.45,400.33,394.17,405.54Z"/></g></svg>